M48
METRIC,TZ
T1C0.762
T2C0.800
T3C0.800
%
G90
G05
T1
X11650Y3060
X14190Y3060
X19270Y18300
X19270Y3060
X20540Y5600
X21810Y18300
X23080Y5600
X26890Y18300
X29430Y18300
X31970Y18300
X39590Y10680
T2
X45825Y14525
X45900Y11350
X47975Y14625
X48125Y11400
X48550Y8650
X48550Y8600
X48600Y5150
T3
X46050Y8650
X46050Y5150
X50650Y17650
X53550Y17700
T0
M30
