G04 #@! TF.FileFunction,Copper,L1,Top,Signal*
%FSLAX46Y46*%
G04 Gerber Fmt 4.6, Leading zero omitted, Abs format (unit mm)*
G04 Created by KiCad (PCBNEW 4.0.6) date Saturday, 23 January 2021 'PMt' 14:53:37*
%MOMM*%
%LPD*%
G01*
G04 APERTURE LIST*
%ADD10C,0.100000*%
%ADD11C,1.524000*%
%ADD12R,2.000000X1.500000*%
%ADD13R,0.800000X1.500000*%
%ADD14R,1.500000X1.250000*%
%ADD15R,3.000000X1.600000*%
%ADD16R,1.000000X3.000000*%
%ADD17C,0.800000*%
%ADD18C,1.000000*%
G04 APERTURE END LIST*
D10*
D11*
X34510000Y18300000D03*
X24350000Y18300000D03*
X26890000Y18300000D03*
X29430000Y18300000D03*
X11650000Y3060000D03*
X14190000Y3060000D03*
X19270000Y3060000D03*
X21810000Y18300000D03*
X31970000Y18300000D03*
X39590000Y10680000D03*
X20540000Y5600000D03*
X23080000Y5600000D03*
X19270000Y18300000D03*
D12*
X26000000Y15200000D03*
D13*
X40000000Y17200000D03*
X38500000Y17200000D03*
X37000000Y17200000D03*
D12*
X26000000Y13200000D03*
X26000000Y11200000D03*
X26000000Y9200000D03*
X26000000Y7200000D03*
X26000000Y5200000D03*
D14*
X9100000Y12250000D03*
X11600000Y12250000D03*
D15*
X8300000Y7200000D03*
X12700000Y7200000D03*
D16*
X21725000Y17400000D03*
X12775000Y16900000D03*
X19050000Y12825000D03*
X9400000Y16900000D03*
X23050000Y7000000D03*
X20500000Y6950000D03*
X21725000Y12900000D03*
X14600000Y6750000D03*
X19125000Y17400000D03*
D17*
X37680000Y10680000D02*
X36830000Y10680000D01*
D18*
X39590000Y10680000D02*
X37680000Y10680000D01*
D17*
X31350000Y5200000D02*
X26000000Y5200000D01*
X36830000Y10680000D02*
X31350000Y5200000D01*
X12775000Y16900000D02*
X18625000Y16900000D01*
X18625000Y16900000D02*
X19125000Y17400000D01*
X12775000Y16900000D02*
X12775000Y13425000D01*
X12775000Y13425000D02*
X11600000Y12250000D01*
D18*
X14190000Y3060000D02*
X14190000Y5710000D01*
X14190000Y5710000D02*
X12700000Y7200000D01*
X12700000Y7200000D02*
X12700000Y11150000D01*
X12700000Y11150000D02*
X11600000Y12250000D01*
X9100000Y12250000D02*
X9100000Y16600000D01*
X9100000Y16600000D02*
X9400000Y16900000D01*
X8300000Y7200000D02*
X8200000Y7200000D01*
X8300000Y7200000D02*
X7250000Y7200000D01*
X9100000Y12250000D02*
X9100000Y8000000D01*
X9100000Y8000000D02*
X8300000Y7200000D01*
X11650000Y3060000D02*
X11650000Y3850000D01*
X11650000Y3850000D02*
X8300000Y7200000D01*
X26890000Y18300000D02*
X26890000Y17960000D01*
X26890000Y17960000D02*
X28400000Y16450000D01*
X28400000Y16450000D02*
X28400000Y14050000D01*
X28400000Y14050000D02*
X27550000Y13200000D01*
X27550000Y13200000D02*
X26000000Y13200000D01*
X29430000Y18300000D02*
X29430000Y17620000D01*
X29430000Y17620000D02*
X30200000Y16850000D01*
X30200000Y16850000D02*
X30200000Y13450002D01*
X30200000Y13450002D02*
X27949998Y11200000D01*
X26000000Y11200000D02*
X27949998Y11200000D01*
X26000000Y9200000D02*
X30750000Y9200000D01*
X31850000Y10300000D02*
X31850000Y18180000D01*
X30750000Y9200000D02*
X31850000Y10300000D01*
X31850000Y18180000D02*
X31970000Y18300000D01*
D17*
X19270000Y3060000D02*
X19270000Y4105000D01*
X24200000Y15200000D02*
X26000000Y15200000D01*
X24200000Y10750000D02*
X24200000Y15200000D01*
X23275000Y9825000D02*
X24200000Y10750000D01*
X20000000Y9825000D02*
X23275000Y9825000D01*
X18725000Y8550000D02*
X20000000Y9825000D01*
X18725000Y4650000D02*
X18725000Y8550000D01*
X19270000Y4105000D02*
X18725000Y4650000D01*
D18*
X19270000Y3060000D02*
X19270000Y3130000D01*
D17*
X21725000Y12900000D02*
X19125000Y12900000D01*
X19125000Y12900000D02*
X19050000Y12825000D01*
X24350000Y18300000D02*
X24350000Y17800000D01*
X24350000Y17800000D02*
X23025000Y16475000D01*
X23025000Y16475000D02*
X23025000Y14200000D01*
X23025000Y14200000D02*
X21650000Y12825000D01*
X34510000Y18300000D02*
X34510000Y17260000D01*
X30850000Y7200000D02*
X26000000Y7200000D01*
X33275000Y9625000D02*
X30850000Y7200000D01*
X33275000Y16025000D02*
X33275000Y9625000D01*
X34510000Y17260000D02*
X33275000Y16025000D01*
M02*
