G04 #@! TF.FileFunction,Copper,L1,Top,Signal*
%FSLAX46Y46*%
G04 Gerber Fmt 4.6, Leading zero omitted, Abs format (unit mm)*
G04 Created by KiCad (PCBNEW 4.0.6) date Tuesday, 08 December 2020 'PMt' 19:01:37*
%MOMM*%
%LPD*%
G01*
G04 APERTURE LIST*
%ADD10C,0.100000*%
%ADD11R,2.000000X1.500000*%
%ADD12R,0.800000X1.500000*%
%ADD13R,1.500000X1.250000*%
%ADD14R,3.000000X1.600000*%
%ADD15R,1.000000X3.000000*%
%ADD16R,3.000000X1.000000*%
%ADD17C,2.000000*%
%ADD18C,1.500000*%
%ADD19C,1.000000*%
G04 APERTURE END LIST*
D10*
D11*
X26000000Y15200000D03*
D12*
X40000000Y17200000D03*
X38500000Y17200000D03*
X37000000Y17200000D03*
D11*
X26000000Y13200000D03*
X26000000Y11200000D03*
X26000000Y9200000D03*
X26000000Y7200000D03*
X26000000Y5200000D03*
D13*
X9100000Y12250000D03*
X11600000Y12250000D03*
D14*
X8300000Y7200000D03*
X12700000Y7200000D03*
D15*
X21800000Y16950000D03*
D16*
X5900000Y14850000D03*
D15*
X17350000Y6850000D03*
D16*
X5450000Y9000000D03*
D15*
X23050000Y7000000D03*
X20500000Y6950000D03*
D16*
X5500000Y4500000D03*
D15*
X14600000Y6750000D03*
X19150000Y17000000D03*
D17*
X11650000Y3060000D03*
X14190000Y3060000D03*
X19270000Y3060000D03*
X11650000Y18300000D03*
X14190000Y18300000D03*
X21810000Y18300000D03*
X31970000Y18300000D03*
X39590000Y10680000D03*
X20540000Y5600000D03*
X23080000Y5600000D03*
X19270000Y18300000D03*
D18*
X28450000Y15250000D03*
X17500000Y9850000D03*
D19*
X11600000Y12250000D02*
X11600000Y13900000D01*
X10650000Y14850000D02*
X5900000Y14850000D01*
X11600000Y13900000D02*
X10650000Y14850000D01*
X14190000Y3060000D02*
X14190000Y5710000D01*
X14190000Y5710000D02*
X12700000Y7200000D01*
X12700000Y7200000D02*
X12700000Y11150000D01*
X12700000Y11150000D02*
X11600000Y12250000D01*
X26000000Y7200000D02*
X26000000Y5200000D01*
X39590000Y10680000D02*
X37680000Y10680000D01*
X34200000Y7200000D02*
X26000000Y7200000D01*
X37680000Y10680000D02*
X34200000Y7200000D01*
X8300000Y7200000D02*
X8200000Y7200000D01*
X8200000Y7200000D02*
X5500000Y4500000D01*
X8300000Y7200000D02*
X7250000Y7200000D01*
X7250000Y7200000D02*
X5450000Y9000000D01*
X9100000Y12250000D02*
X9100000Y8000000D01*
X9100000Y8000000D02*
X8300000Y7200000D01*
X11650000Y3060000D02*
X11650000Y3850000D01*
X11650000Y3850000D02*
X8300000Y7200000D01*
X11650000Y18300000D02*
X11650000Y18100000D01*
X11650000Y18100000D02*
X17350000Y12400000D01*
X17350000Y12400000D02*
X23750000Y12400000D01*
X23750000Y12400000D02*
X24550000Y13200000D01*
X24550000Y13200000D02*
X26000000Y13200000D01*
X26000000Y11200000D02*
X27949998Y11200000D01*
X18290000Y14200000D02*
X14190000Y18300000D01*
X22900000Y14200000D02*
X18290000Y14200000D01*
X23950000Y15250000D02*
X22900000Y14200000D01*
X23950000Y16400000D02*
X23950000Y15250000D01*
X25000000Y17450000D02*
X23950000Y16400000D01*
X28900000Y17450000D02*
X25000000Y17450000D01*
X30300000Y16050000D02*
X28900000Y17450000D01*
X30300000Y13550002D02*
X30300000Y16050000D01*
X27949998Y11200000D02*
X30300000Y13550002D01*
X26000000Y9200000D02*
X30750000Y9200000D01*
X31850000Y10300000D02*
X31850000Y18180000D01*
X30750000Y9200000D02*
X31850000Y10300000D01*
X31850000Y18180000D02*
X31970000Y18300000D01*
X17350000Y6850000D02*
X17350000Y9700000D01*
X28400000Y15200000D02*
X26000000Y15200000D01*
X28450000Y15250000D02*
X28400000Y15200000D01*
X17350000Y9700000D02*
X17500000Y9850000D01*
X19270000Y3060000D02*
X19270000Y3130000D01*
X19270000Y3130000D02*
X17350000Y5050000D01*
X17350000Y5050000D02*
X17350000Y6850000D01*
M02*
